<svg width="24" height="25" viewBox="0 0 24 25" fill="none" xmlns="http://www.w3.org/2000/svg">
<path d="M12 23.8295L5.636 17.4655C4.37734 16.2068 3.52019 14.6032 3.17293 12.8573C2.82567 11.1115 3.00391 9.30191 3.6851 7.65739C4.36629 6.01286 5.51984 4.60726 6.99988 3.61833C8.47992 2.6294 10.22 2.10156 12 2.10156C13.78 2.10156 15.5201 2.6294 17.0001 3.61833C18.4802 4.60726 19.6337 6.01286 20.3149 7.65739C20.9961 9.30191 21.1743 11.1115 20.8271 12.8573C20.4798 14.6032 19.6227 16.2068 18.364 17.4655L12 23.8295ZM16.95 16.0515C17.9289 15.0725 18.5955 13.8252 18.8656 12.4674C19.1356 11.1095 18.9969 9.70208 18.4671 8.42304C17.9373 7.144 17.04 6.05079 15.8889 5.28165C14.7378 4.51251 13.3844 4.10199 12 4.10199C10.6156 4.10199 9.26222 4.51251 8.11109 5.28165C6.95996 6.05079 6.06275 7.144 5.53292 8.42304C5.00308 9.70208 4.86442 11.1095 5.13445 12.4674C5.40449 13.8252 6.07111 15.0725 7.05 16.0515L12 21.0015L16.95 16.0515ZM12 13.1015C11.4696 13.1015 10.9609 12.8908 10.5858 12.5157C10.2107 12.1406 10 11.6319 10 11.1015C10 10.5711 10.2107 10.0623 10.5858 9.68727C10.9609 9.3122 11.4696 9.10148 12 9.10148C12.5304 9.10148 13.0391 9.3122 13.4142 9.68727C13.7893 10.0623 14 10.5711 14 11.1015C14 11.6319 13.7893 12.1406 13.4142 12.5157C13.0391 12.8908 12.5304 13.1015 12 13.1015Z" fill="white"/>
</svg>
