<svg width="165" height="160" viewBox="0 0 165 160" fill="none" xmlns="http://www.w3.org/2000/svg">
<g filter="url(#filter0_d_852_1121)">
<path d="M29 88.5C29 50.1162 60.1162 19 98.5 19H165V117C165 119.209 163.209 121 161 121H33C30.7909 121 29 119.209 29 117V88.5Z" fill="#003ADB"/>
</g>
<g clip-path="url(#clip0_852_1121)">
<path d="M86 61.2858V86.9338L96.13 82.5938L108.13 88.5938L118 84.3598V58.7138L120.606 57.5978C120.758 57.5325 120.924 57.5061 121.089 57.5209C121.254 57.5356 121.413 57.5911 121.551 57.6823C121.689 57.7735 121.802 57.8976 121.881 58.0434C121.959 58.1892 122 58.3522 122 58.5178V86.9998L108 92.9998L96 86.9998L83.394 92.4018C83.2418 92.467 83.0758 92.4934 82.9109 92.4787C82.746 92.4639 82.5874 92.4085 82.4492 92.3173C82.311 92.2261 82.1976 92.102 82.1192 91.9562C82.0408 91.8104 81.9999 91.6473 82 91.4818V62.9998L86 61.2858ZM110.486 71.4858L102 79.9698L93.514 71.4858C91.836 69.8075 90.6933 67.6693 90.2304 65.3416C89.7676 63.0138 90.0053 60.6011 90.9136 58.4085C91.822 56.216 93.36 54.3419 95.3334 53.0234C97.3067 51.705 99.6267 51.0012 102 51.0012C104.373 51.0012 106.693 51.705 108.667 53.0234C110.64 54.3419 112.178 56.216 113.086 58.4085C113.995 60.6011 114.232 63.0138 113.77 65.3416C113.307 67.6693 112.164 69.8075 110.486 71.4858ZM102 74.3138L107.656 68.6558C108.775 67.5371 109.537 66.1116 109.846 64.5597C110.155 63.0078 109.997 61.3991 109.391 59.9372C108.786 58.4752 107.76 57.2256 106.445 56.3465C105.129 55.4673 103.582 54.9981 102 54.9981C100.418 54.9981 98.8708 55.4673 97.5552 56.3465C96.2395 57.2256 95.2142 58.4752 94.6087 59.9372C94.0033 61.3991 93.845 63.0078 94.1539 64.5597C94.4628 66.1116 95.2249 67.5371 96.344 68.6558L102 74.3138Z" fill="white"/>
</g>
<defs>
<filter id="filter0_d_852_1121" x="0" y="0" width="194" height="160" filterUnits="userSpaceOnUse" color-interpolation-filters="sRGB">
<feFlood flood-opacity="0" result="BackgroundImageFix"/>
<feColorMatrix in="SourceAlpha" type="matrix" values="0 0 0 0 0 0 0 0 0 0 0 0 0 0 0 0 0 0 127 0" result="hardAlpha"/>
<feOffset dy="10"/>
<feGaussianBlur stdDeviation="14.5"/>
<feColorMatrix type="matrix" values="0 0 0 0 0.25098 0 0 0 0 0.505647 0 0 0 0 1 0 0 0 0.24 0"/>
<feBlend mode="normal" in2="BackgroundImageFix" result="effect1_dropShadow_852_1121"/>
<feBlend mode="normal" in="SourceGraphic" in2="effect1_dropShadow_852_1121" result="shape"/>
</filter>
<clipPath id="clip0_852_1121">
<rect width="48" height="48" fill="white" transform="translate(78 49)"/>
</clipPath>
</defs>
</svg>
