<svg width="24" height="25" viewBox="0 0 24 25" fill="none" xmlns="http://www.w3.org/2000/svg">
<path d="M2 9.09557C1.99947 8.30778 2.15435 7.52761 2.45577 6.79976C2.75718 6.0719 3.19921 5.41065 3.75655 4.85387C4.31388 4.2971 4.97558 3.85573 5.70373 3.55504C6.43189 3.25435 7.21221 3.10026 8 3.10157H16C19.313 3.10157 22 5.79657 22 9.09557V21.1016H8C4.687 21.1016 2 18.4066 2 15.1076V9.09557ZM20 19.1016V9.09557C19.9974 8.03607 19.5749 7.02081 18.8251 6.27219C18.0754 5.52357 17.0595 5.10263 16 5.10157H8C7.47485 5.10025 6.9546 5.20262 6.4691 5.4028C5.98359 5.60297 5.54238 5.89702 5.17076 6.26809C4.79914 6.63915 4.50443 7.07992 4.30353 7.56512C4.10262 8.05033 3.99947 8.57042 4 9.09557V15.1076C4.00265 16.1671 4.42511 17.1823 5.17486 17.931C5.9246 18.6796 6.9405 19.1005 8 19.1016H20ZM14 11.1016H16V13.1016H14V11.1016ZM8 11.1016H10V13.1016H8V11.1016Z" fill="white"/>
</svg>
