<svg width="23" height="22" viewBox="0 0 23 22" fill="none" xmlns="http://www.w3.org/2000/svg">
<path fill-rule="evenodd" clip-rule="evenodd" d="M7.83665 0H16.0867C19.883 0 22.9617 3.07862 22.9617 6.875V15.125C22.9617 18.9214 19.883 22 16.0867 22H7.83665C4.04028 22 0.961655 18.9214 0.961655 15.125V6.875C0.961655 3.07862 4.04028 0 7.83665 0ZM16.0867 19.9375C18.7404 19.9375 20.8992 17.7787 20.8992 15.125V6.875C20.8992 4.22125 18.7404 2.0625 16.0867 2.0625H7.83665C5.1829 2.0625 3.02415 4.22125 3.02415 6.875V15.125C3.02415 17.7787 5.1829 19.9375 7.83665 19.9375H16.0867Z" fill="white"/>
<path fill-rule="evenodd" clip-rule="evenodd" d="M6.46165 11C6.46165 7.96263 8.92428 5.5 11.9617 5.5C14.999 5.5 17.4617 7.96263 17.4617 11C17.4617 14.0374 14.999 16.5 11.9617 16.5C8.92428 16.5 6.46165 14.0374 6.46165 11ZM8.52415 11C8.52415 12.8948 10.0669 14.4375 11.9617 14.4375C13.8564 14.4375 15.3992 12.8948 15.3992 11C15.3992 9.10388 13.8564 7.5625 11.9617 7.5625C10.0669 7.5625 8.52415 9.10388 8.52415 11Z" fill="white"/>
<circle cx="17.8742" cy="5.08749" r="0.732875" fill="white"/>
</svg>
