<svg width="153" height="51" viewBox="0 0 153 51" fill="none" xmlns="http://www.w3.org/2000/svg">
<g clip-path="url(#clip0_852_1157)">
<path d="M55.5765 12.3011C56.5739 11.78 57.3966 10.9786 57.9434 9.99589C58.5099 8.93799 58.794 7.75217 58.7683 6.55273C58.787 5.35404 58.5033 4.16993 57.9434 3.10957C57.4019 2.12867 56.5818 1.32993 55.5864 0.814129C54.5211 0.256207 53.332 -0.0238567 52.1294 -6.62679e-05H43.1138V22.7091H46.2958V13.1153H51.0687L55.9104 22.7091H59.6915L54.4275 12.7524C54.8253 12.6426 55.2104 12.4913 55.5765 12.3011ZM46.2958 3.03109H52.2571C52.8239 3.02086 53.3821 3.17045 53.8677 3.46271C54.3574 3.7595 54.7499 4.19243 54.9971 4.70853C55.2623 5.28657 55.3932 5.91702 55.3801 6.55273C55.3924 7.19152 55.2615 7.82497 54.9971 8.40674C54.7632 8.91679 54.384 9.34669 53.907 9.64275C53.4268 9.94017 52.8711 10.0934 52.3062 10.0842H46.2958V3.03109Z" fill="white"/>
<path d="M70.4355 0L62.0583 22.7092H65.4956L67.2044 17.7357H76.3772L78.0958 22.7092H81.5135L73.1559 0H70.4355ZM68.2553 14.7144L71.7908 4.41431L75.3361 14.7144H68.2553Z" fill="white"/>
<path d="M91.197 17.8141L85.7464 0.0195312H82.2697L89.6845 22.7091H92.7094L100.114 0.0195312H96.6476L91.197 17.8141Z" fill="white"/>
<path d="M106.154 0.0195312H104.612V22.7091H106.154H107.804H119.206V19.6779H107.804V12.9584H117.488V9.92721H107.804V3.04088H119.206V0.0195312H107.804H106.154Z" fill="white"/>
<path d="M138.416 0.0195312V16.9705L127.682 0.0195312H124.794V22.6993H127.947V6.00337L138.652 22.6993H141.578V0.0195312H138.416Z" fill="white"/>
<path d="M54.9971 29.0165C53.5338 28.3388 51.935 28.0033 50.3223 28.0356H43.1138V50.7644H50.3027C51.9157 50.8005 53.5154 50.4648 54.9775 49.7834C56.2198 49.2096 57.2553 48.2677 57.9434 47.0858C58.6413 45.7253 58.9794 44.2091 58.9255 42.6813V36.1971C58.9808 34.6724 58.6426 33.159 57.9434 31.8025C57.2748 30.5907 56.245 29.617 54.9971 29.0165ZM55.7042 42.7499C55.7457 43.4245 55.6438 44.1001 55.4051 44.7324C55.1664 45.3648 54.7964 45.9395 54.3195 46.4187C53.2333 47.3537 51.8215 47.8225 50.3911 47.7234H46.2958V31.0471H50.4107C51.8411 30.948 53.2529 31.4169 54.3391 32.3518C54.8169 32.8325 55.1873 33.4089 55.4259 34.0429C55.6646 34.677 55.7661 35.3543 55.7238 36.0304L55.7042 42.7499Z" fill="white"/>
<path d="M66.9884 28.0652H63.7966V50.7646H66.9884V28.0652Z" fill="white"/>
<path d="M80.2663 41.5826H84.8821V42.5635C84.9048 43.5464 84.7068 44.5218 84.3027 45.4181C83.9511 46.1791 83.38 46.8178 82.6626 47.2525C81.9108 47.6843 81.0547 47.9015 80.1877 47.8803C79.3145 47.8957 78.4521 47.6862 77.6834 47.2721C76.9676 46.8807 76.3834 46.287 76.004 45.5653C75.5971 44.7707 75.3946 43.8874 75.4148 42.9952V36.2952C75.3932 35.3262 75.5878 34.3645 75.9844 33.4799C76.3317 32.7205 76.8866 32.0744 77.5852 31.6161C78.3273 31.1562 79.187 30.9211 80.0601 30.9392C80.7097 30.942 81.3505 31.0895 81.9359 31.3708C82.5492 31.6634 83.0894 32.089 83.517 32.6166C83.9885 33.1882 84.3242 33.8589 84.4991 34.5785H87.9463C87.7125 33.2986 87.1921 32.088 86.424 31.0373C85.7151 30.0362 84.7708 29.2243 83.6742 28.6732C82.5572 28.1092 81.3214 27.82 80.0699 27.8296C78.6052 27.7998 77.1598 28.1659 75.8862 28.889C74.6939 29.5834 73.726 30.6047 73.097 31.8319C72.4176 33.213 72.0808 34.7371 72.115 36.2756V42.9755C72.0776 44.4359 72.4157 45.8814 73.097 47.174C73.7502 48.3872 74.7479 49.3804 75.9648 50.0286C77.2676 50.7047 78.7199 51.0421 80.1877 51.0096C81.6527 51.0423 83.099 50.676 84.3715 49.9502C85.569 49.2624 86.5386 48.2393 87.1606 47.0073C87.8397 45.6226 88.1765 44.0953 88.1427 42.5537V38.6299H80.286L80.2663 41.5826Z" fill="white"/>
<path d="M96.186 28.0652H92.9942V50.7646H96.186V28.0652Z" fill="white"/>
<path d="M115.965 31.0963V28.0652H99.9278V31.0963H106.351V50.7646H109.542V31.0963H115.965Z" fill="white"/>
<path d="M123.871 28.0652L115.494 50.7646H118.931L120.64 45.7813H129.813L131.522 50.7646H134.959L126.592 28.0652H123.871ZM121.681 42.7796L125.226 32.4697L128.772 42.7796H121.681Z" fill="white"/>
<path d="M141.588 47.7334V28.0652H138.396V50.7646H139.997H141.588H152.99V47.7334H141.588Z" fill="white"/>
<path d="M2.33725 50.5485C7.52269 46.762 19.6417 36.4031 21.3898 21.0315C23.4228 2.94263 32.183 0.323472 33.5776 -0.000244141H16.6954C15.8444 0.00707823 14.9948 0.0693353 14.1518 0.186138C10.2098 0.793104 6.61561 2.78963 4.01975 5.81434C1.42388 8.83906 -0.00211156 12.6921 -0.000127818 16.676V35.5987C0.530201 35.4319 1.05071 35.2456 1.55158 35.0494C8.18069 32.4891 12.8751 25.2398 14.5545 17.2548C12.8908 25.8084 7.95968 33.3794 0.805187 38.365C0.540022 38.571 0.274858 38.7476 -0.00994873 38.934V50.6368H0.255216C0.657873 50.6368 1.05071 50.6368 1.45337 50.6368L2.35689 50.5779L2.33725 50.5485ZM11.0484 7.64142C10.8285 7.64141 10.6135 7.57614 10.4308 7.4539C10.2481 7.33166 10.1059 7.15796 10.0222 6.95484C9.93851 6.75171 9.91711 6.52833 9.96073 6.31305C10.0044 6.09776 10.111 5.90027 10.2672 5.74564C10.4234 5.59102 10.6221 5.48623 10.838 5.44457C11.0539 5.40291 11.2773 5.42627 11.4799 5.51167C11.6825 5.59708 11.8552 5.74068 11.9759 5.92425C12.0967 6.10783 12.1601 6.3231 12.1582 6.54274C12.1582 6.68785 12.1294 6.83153 12.0735 6.96547C12.0176 7.09941 11.9357 7.22096 11.8325 7.32311C11.7294 7.42526 11.6069 7.50598 11.4723 7.56062C11.3378 7.61525 11.1937 7.64271 11.0484 7.64142Z" fill="white"/>
<path d="M33.4795 0C33.1801 0.0754426 32.885 0.167135 32.5956 0.274668C29.9341 1.25563 23.2559 5.31679 21.5274 20.6884C20.3489 31.2043 14.201 39.3266 8.86826 44.5747C7.97456 44.663 7.0514 44.7121 6.11841 44.7121C5.70593 44.7121 5.29345 44.7121 4.88097 44.7121C10.2236 39.4934 16.3714 31.3416 17.55 20.8257C18.7972 9.80958 24.4639 3.85516 27.5771 1.40277C29.5121 0.808279 31.4837 0.339706 33.4795 0V0Z" fill="#EFEFEF"/>
<path d="M27.5771 1.40283C24.4639 3.85523 18.7972 9.80964 17.55 20.7964C16.3715 31.3122 10.2236 39.4346 4.88099 44.6827C4.56672 44.6827 4.2721 44.6827 3.96765 44.6827C2.83524 44.5685 1.71047 44.3883 0.599075 44.1432C0.874061 42.1813 1.05084 40.3174 1.30618 37.9828C8.36532 32.9757 13.2197 25.4426 14.859 16.951C13.1993 24.7987 8.19064 31.9597 1.99364 34.8437C3.76141 23.4351 8.33795 8.11258 26.0058 1.96198C26.5165 1.74617 27.037 1.56959 27.5771 1.40283Z" fill="#F5F5F5"/>
<path d="M22.7649 21.1592C21.606 31.7633 15.4385 39.9837 10.0271 45.3202C15.6667 44.4983 20.9189 41.9706 25.0768 38.0771C29.2346 34.1836 32.0985 29.1113 33.2831 23.5429C33.3682 23.1113 33.4467 22.6797 33.5188 22.248C33.5188 22.1892 33.8527 19.5013 33.9116 15.9895C34.0196 10.1626 33.9116 2.12859 33.9116 0.4021C31.1225 1.51058 24.5523 5.73851 22.7649 21.1592Z" fill="white"/>
<path d="M33.8919 0.39231C33.8919 2.10899 34 10.2019 33.8919 15.9797C33.833 19.4916 33.5188 22.1696 33.5089 22.2284C33.4402 22.6699 33.3518 23.1015 33.2732 23.5331C32.0954 29.1016 29.2378 34.1759 25.0852 38.073C20.9325 41.97 15.6842 44.5027 10.0468 45.33C8.10881 47.2463 6.03444 49.02 3.83995 50.637C11.0195 49.8728 17.7644 46.8287 23.0835 41.9519C28.4026 37.075 32.0154 30.6227 33.3911 23.5429C33.4696 23.1113 33.558 22.6797 33.6268 22.2382C33.6268 22.0813 33.6759 21.9145 33.6857 21.7478C33.8155 20.8731 33.9007 19.9923 33.9411 19.109C33.9902 18.4517 34.0098 17.7847 34.0098 17.1471V0.343262L33.8919 0.39231Z" fill="#EFEFEF"/>
</g>
<defs>
<clipPath id="clip0_852_1157">
<rect width="153" height="51" fill="white"/>
</clipPath>
</defs>
</svg>
