<svg width="48" height="48" viewBox="0 0 48 48" fill="none" xmlns="http://www.w3.org/2000/svg">
<g clip-path="url(#clip0_852_1000)">
<path d="M8.00005 32H40V10H8.00005V32ZM26.0001 36V40H34.0001V44H14.0001V40H22.0001V36H5.98405C5.72142 35.9984 5.46169 35.945 5.21973 35.8429C4.97777 35.7408 4.75834 35.5919 4.57403 35.4048C4.38972 35.2177 4.24415 34.9961 4.14565 34.7526C4.04716 34.5091 3.99768 34.2486 4.00005 33.986V8.014C4.00005 6.902 4.91005 6 5.98405 6H42.016C43.112 6 44 6.898 44 8.014V33.986C44 35.098 43.09 36 42.016 36H26.0001Z" fill="white"/>
</g>
<defs>
<clipPath id="clip0_852_1000">
<rect width="48" height="48" fill="white"/>
</clipPath>
</defs>
</svg>
