<svg width="48" height="48" viewBox="0 0 48 48" fill="none" xmlns="http://www.w3.org/2000/svg">
<path d="M10 10V16H38V10H10ZM8 6H40C40.5304 6 41.0391 6.21071 41.4142 6.58579C41.7893 6.96086 42 7.46957 42 8V18C42 18.5304 41.7893 19.0391 41.4142 19.4142C41.0391 19.7893 40.5304 20 40 20H8C7.46957 20 6.96086 19.7893 6.58579 19.4142C6.21071 19.0391 6 18.5304 6 18V8C6 7.46957 6.21071 6.96086 6.58579 6.58579C6.96086 6.21071 7.46957 6 8 6ZM12 24H24C24.5304 24 25.0391 24.2107 25.4142 24.5858C25.7893 24.9609 26 25.4696 26 26V32H28V44H20V32H22V28H10C9.46957 28 8.96086 27.7893 8.58579 27.4142C8.21071 27.0391 8 26.5304 8 26V22H12V24ZM35.464 27.464L39 23.928L42.536 27.464C43.2351 28.1633 43.7112 29.0542 43.904 30.0241C44.0968 30.994 43.9977 31.9992 43.6193 32.9128C43.2408 33.8263 42.5999 34.6072 41.7777 35.1565C40.9555 35.7059 39.9888 35.9991 39 35.9991C38.0112 35.9991 37.0445 35.7059 36.2223 35.1565C35.4001 34.6072 34.7592 33.8263 34.3807 32.9128C34.0023 31.9992 33.9032 30.994 34.096 30.0241C34.2888 29.0542 34.7649 28.1633 35.464 27.464Z" fill="white"/>
</svg>
